<svg width="101" height="92" viewBox="0 0 101 92" fill="none" xmlns="http://www.w3.org/2000/svg">
<path d="M59.1949 0C49.5903 0 40.3774 3.77013 33.5844 10.481C26.7914 17.1919 22.9763 26.2938 22.9763 35.7844V71.871H63.788C68.542 71.9381 73.2639 71.0781 77.6852 69.3409C82.1066 67.6042 86.1362 65.0237 89.5488 61.7475C92.956 58.4713 95.6818 54.5634 97.5652 50.2472C99.4432 45.9305 100.447 41.2903 100.516 36.5908V0H59.1949Z" fill="#00C8C8"/>
<path d="M76.2683 20.1252H35.8644C26.351 20.1252 17.2293 23.9009 10.5061 30.6215C3.77747 37.3421 0 46.4572 0 55.9618V92H64.6515C74.165 92 83.2867 88.2243 90.0099 81.5037C96.7385 74.7832 100.516 65.668 100.516 56.1638V20.1252H76.2683Z" fill="#280CFF"/>
</svg>
