<svg width="25" height="24" viewBox="0 0 25 24" fill="none" xmlns="http://www.w3.org/2000/svg">
<path d="M5.25 13.97C5.11 15.6 6.4 17 8.04 17H18.69C20.13 17 21.39 15.82 21.5 14.39L22.04 6.89001C22.16 5.23001 20.9 3.88 19.23 3.88H6.32001" stroke="#005430" stroke-width="1.5" stroke-miterlimit="10" stroke-linecap="round" stroke-linejoin="round"/>
<path d="M2.5 2H4.24001C5.32001 2 6.17 2.93 6.08 4L5.58 10.05" stroke="#005430" stroke-width="1.5" stroke-miterlimit="10" stroke-linecap="round" stroke-linejoin="round"/>
<path d="M16.75 22C17.4404 22 18 21.4404 18 20.75C18 20.0596 17.4404 19.5 16.75 19.5C16.0596 19.5 15.5 20.0596 15.5 20.75C15.5 21.4404 16.0596 22 16.75 22Z" stroke="#005430" stroke-width="1.5" stroke-miterlimit="10" stroke-linecap="round" stroke-linejoin="round"/>
<path d="M8.75 22C9.44036 22 10 21.4404 10 20.75C10 20.0596 9.44036 19.5 8.75 19.5C8.05964 19.5 7.5 20.0596 7.5 20.75C7.5 21.4404 8.05964 22 8.75 22Z" stroke="#005430" stroke-width="1.5" stroke-miterlimit="10" stroke-linecap="round" stroke-linejoin="round"/>
<path d="M9.5 8H21.5" stroke="#005430" stroke-width="1.5" stroke-miterlimit="10" stroke-linecap="round" stroke-linejoin="round"/>
</svg>
